<?xml version="1.0" encoding="utf-8"?>
<!-- Generator: Adobe Illustrator 16.0.0, SVG Export Plug-In . SVG Version: 6.00 Build 0)  -->
<!DOCTYPE svg PUBLIC "-//W3C//DTD SVG 1.1//EN" "http://www.w3.org/Graphics/SVG/1.1/DTD/svg11.dtd">
<svg version="1.1" id="Layer_1" xmlns="http://www.w3.org/2000/svg" xmlns:xlink="http://www.w3.org/1999/xlink" x="0px" y="0px"
	 width="512px" height="512px" viewBox="0 0 512 512" enable-background="new 0 0 512 512" xml:space="preserve">
<path fill="#000" d="M394.785,246.729c6.08,10.756,18.469,17.051,31.331,14.783c16.316-2.877,27.213-18.438,24.336-34.752
	c-2.877-16.316-18.439-27.213-34.754-24.336c-12.863,2.268-22.352,12.418-24.385,24.609l-82.595,14.563
	c-1.759-6.452-4.668-12.427-8.497-17.693l52.892-63.036c11.572,4.334,25.108,1.191,33.504-8.813
	c10.649-12.693,8.995-31.615-3.697-42.266c-12.692-10.648-31.617-8.992-42.265,3.699c-8.396,10.004-9.14,23.879-2.863,34.523
	l-52.115,62.108c-5.878-3.811-12.532-6.52-19.677-7.841v-80.396c11.65-4.121,20-15.227,20-28.287c0-16.568-13.432-30.002-30-30.002
	s-30,13.434-30,30.002c0,13.061,8.35,24.166,20,28.287v80.396c-7.145,1.321-13.798,4.03-19.677,7.841l-52.115-62.108
	c6.277-10.645,5.534-24.52-2.861-34.523c-10.65-12.693-29.574-14.35-42.266-3.699s-14.347,29.574-3.697,42.266
	c8.396,10.006,21.931,13.146,33.503,8.813l52.893,63.036c-3.83,5.267-6.739,11.241-8.498,17.693l-82.594-14.563
	c-2.034-12.189-11.522-22.342-24.384-24.609c-16.317-2.877-31.878,8.018-34.755,24.334c-2.876,16.316,8.02,31.877,24.336,34.754
	c12.862,2.268,25.25-4.025,31.331-14.783l84.421,14.886c0.602,5.893,2.152,11.501,4.475,16.688l-75.629,43.664
	c-9.393-8.029-23.187-9.709-34.498-3.178c-14.349,8.285-19.266,26.633-10.982,40.98c8.285,14.35,26.634,19.266,40.982,10.98
	c11.311-6.529,16.755-19.314,14.498-31.463l77.045-44.482c3.614,3.584,7.725,6.664,12.221,9.133l-30.741,84.457
	c-12.356-0.113-24.002,7.469-28.469,19.742c-5.666,15.568,2.362,32.785,17.929,38.451c15.57,5.668,32.786-2.361,38.452-17.93
	c4.468-12.273,0.42-25.566-9.118-33.422l30.965-85.077c2.369,0.313,4.78,0.491,7.234,0.491s4.866-0.178,7.234-0.491l30.965,85.077
	c-9.539,7.855-13.586,21.148-9.12,33.422c5.667,15.568,22.883,23.598,38.451,17.932c15.57-5.668,23.598-22.885,17.931-38.453
	c-4.466-12.273-16.111-19.855-28.468-19.74l-30.741-84.459c4.496-2.469,8.607-5.549,12.221-9.133l77.045,44.482
	c-2.257,12.148,3.187,24.934,14.498,31.465c14.349,8.283,32.698,3.367,40.981-10.98c8.285-14.348,3.367-32.697-10.981-40.98
	c-11.311-6.531-25.104-4.854-34.498,3.176l-75.629-43.664c2.323-5.188,3.874-10.796,4.475-16.688L394.785,246.729z"/>
</svg>
