<?xml version="1.0" encoding="utf-8"?>
<!-- Generator: Adobe Illustrator 17.1.0, SVG Export Plug-In . SVG Version: 6.00 Build 0)  -->
<!DOCTYPE svg PUBLIC "-//W3C//DTD SVG 1.1//EN" "http://www.w3.org/Graphics/SVG/1.1/DTD/svg11.dtd">
<svg version="1.1" id="Layer_1" xmlns="http://www.w3.org/2000/svg" xmlns:xlink="http://www.w3.org/1999/xlink" x="0px" y="0px"
	 width="1000px" height="1000px" viewBox="0 0 1000 1000" enable-background="new 0 0 1000 1000" xml:space="preserve">
<path fill="#fff" d="M500,507.903c-48.547,54.68-119.368,89.13-198.241,89.13c-19.028,0-37.595-2.007-55.487-5.818
	c-7.341,24.298-11.289,50.074-11.289,76.767C234.983,814.348,353.635,933,500,933s265.017-118.652,265.017-265.017
	c0-26.693-3.948-52.469-11.289-76.767c-17.892,3.811-36.459,5.818-55.487,5.818C619.368,597.034,548.547,562.583,500,507.903z"/>
<path fill="#fff" d="M444.513,408.784c-7.341-24.298-11.289-50.074-11.289-76.767c0-67.492,25.234-129.097,66.776-175.887
	C451.453,101.45,380.632,67,301.759,67C155.394,67,36.742,185.652,36.742,332.017c0,127.336,89.799,233.696,209.53,259.199
	C273.951,499.603,349.881,428.941,444.513,408.784z"/>
<path fill="#fff" d="M444.513,408.784c11.22,37.138,30.375,70.835,55.487,99.119c25.112-28.285,44.266-61.981,55.487-99.119
	c-17.892-3.811-36.459-5.818-55.487-5.818C480.972,402.966,462.405,404.973,444.513,408.784z"/>
<path fill="#fff" d="M698.241,67C619.368,67,548.547,101.45,500,156.13c41.542,46.79,66.776,108.395,66.776,175.887
	c0,26.693-3.948,52.469-11.289,76.767c94.632,20.157,170.562,90.818,198.241,182.432c119.731-25.503,209.53-131.862,209.53-259.199
	C963.258,185.652,844.606,67,698.241,67z"/>
</svg>
