<?xml version="1.0" encoding="utf-8"?>
<!-- Generator: Adobe Illustrator 16.0.0, SVG Export Plug-In . SVG Version: 6.00 Build 0)  -->
<!DOCTYPE svg PUBLIC "-//W3C//DTD SVG 1.1//EN" "http://www.w3.org/Graphics/SVG/1.1/DTD/svg11.dtd">
<svg version="1.1" id="Layer_1" xmlns="http://www.w3.org/2000/svg" xmlns:xlink="http://www.w3.org/1999/xlink" x="0px" y="0px"
	 width="512px" height="512px" viewBox="0 0 512 512" enable-background="new 0 0 512 512" xml:space="preserve">
<path fill="#000" d="M465.568,256.996l-67.957-70.266l36.436-102.138l-121.14-24.424l-75.716,35.943l-53.766-39.4L93.758,99.838v89.49
	l-48.189,78.11l111.474,2.264l-56.751,66.013l38.514,94.271l97.789-12.744l115.638,38.591l-20.2-81.359l82.545-6.986
	L465.568,256.996z M181.627,177.197l50.522-55.706l14.012,68.871L181.627,177.197z M125.923,327.1l44.043-51.229l23.437,53.546
	L125.923,327.1z M180.905,266.401l59.112-46.569l-36.422,98.409L180.905,266.401z M180.135,249.417l-3.482-59.133l62.383,12.728
	L180.135,249.417z M108.371,108.145l63.193-30.395l-6.578,89.546L108.371,108.145z M154.898,176.742l-47.321,6.604V127.3
	L154.898,176.742z M162.768,189.595l3.559,60.401l-51.346-53.731L162.768,189.595z M152.761,255.805l-82.738-1.604l31.832-51.671
	L152.761,255.805z M200.109,343.474l26.04,61.192l-78.577,10.241l-30.346-74.28L200.109,343.474z M344.807,258.301l44.498-60.283
	l50.001,51.7L344.807,258.301z M398.818,355.377l-68.039,5.344l4.947-75.61L398.818,355.377z M254.292,408.578l64.399-30.487
	l14.071,56.677L254.292,408.578z M317.26,264.543l0.756,0.841l-100.353,54.66l40.296-108.877L317.26,264.543z M322.292,278.789
	l-5.27,80.524l-94.578-26.139L322.292,278.789z M373.078,196.729l-44.107,59.761l-57.104-51.396L373.078,196.729z M260.627,192.157
	l-17.044-83.782l67.739-32.158l68.149,106.119L260.627,192.157z M303.607,369.942l-64.27,30.427L216.1,345.758L303.607,369.942z
	 M342.846,272.354l104.853-9.524l-38.511,83.411L342.846,272.354z M415.715,94.858l-27.142,76.079l-60.805-94.685L415.715,94.858z
	 M179.449,159.027l6.143-83.597l41.857,30.675L179.449,159.027z"/>
</svg>
