<?xml version="1.0" encoding="utf-8"?>
<!-- Generator: Adobe Illustrator 16.0.0, SVG Export Plug-In . SVG Version: 6.00 Build 0)  -->
<!DOCTYPE svg PUBLIC "-//W3C//DTD SVG 1.1//EN" "http://www.w3.org/Graphics/SVG/1.1/DTD/svg11.dtd">
<svg version="1.1" id="Layer_1" xmlns="http://www.w3.org/2000/svg" xmlns:xlink="http://www.w3.org/1999/xlink" x="0px" y="0px"
	 width="512px" height="512px" viewBox="0 0 512 512" enable-background="new 0 0 512 512" xml:space="preserve">
<g>
	<polygon points="359.81,174.246 337.69,200.654 378.466,245.416 387.821,234.246 470.981,234.246 470.981,174.246 	"/>
	<path d="M261.81,291.254h-35.594c-10.588-19.064-30.924-31.998-54.232-31.998c-34.186,0-61.998,27.813-61.998,61.998
		s27.813,61.998,61.998,61.998c23.309,0,43.645-12.936,54.232-31.998h63.605l23.848-28.475l-40.775-44.76L261.81,291.254z
		 M171.983,343.252c-12.13,0-21.998-9.869-21.998-21.998c0-12.131,9.868-21.998,21.998-21.998s21.998,9.867,21.998,21.998
		C193.981,333.383,184.113,343.252,171.983,343.252z"/>
	<path d="M393.127,290.99L274.252,160.496H157.104c-10.627-18.926-30.883-31.748-54.088-31.748
		c-34.186,0-61.998,27.813-61.998,61.998s27.813,61.998,61.998,61.998c23.411,0,43.829-13.047,54.377-32.248h90.353l118.898,130.52
		l104.337-0.102l-0.059-60L393.127,290.99z M103.017,212.744c-12.13,0-21.998-9.867-21.998-21.998
		c0-12.129,9.868-21.998,21.998-21.998s21.998,9.869,21.998,21.998C125.015,202.877,115.146,212.744,103.017,212.744z"/>
</g>
</svg>
