<?xml version="1.0" encoding="utf-8"?>
<!-- Generator: Adobe Illustrator 16.0.0, SVG Export Plug-In . SVG Version: 6.00 Build 0)  -->
<!DOCTYPE svg PUBLIC "-//W3C//DTD SVG 1.1//EN" "http://www.w3.org/Graphics/SVG/1.1/DTD/svg11.dtd">
<svg version="1.1" id="Layer_1" xmlns="http://www.w3.org/2000/svg" xmlns:xlink="http://www.w3.org/1999/xlink" x="0px" y="0px"
	 width="512px" height="512px" viewBox="0 0 512 512" enable-background="new 0 0 512 512" xml:space="preserve">
<path fill="#5fd688" d="M447.146,273.504l-72.35-26.699V168.35l-35.597-14.02l-0.023-39.481L256,84.083l-83.196,30.43l-0.003,39.818l-35.597,14.02
	v78.449l-72.38,26.403l0,107.837l83.199,31.905l47.447-18.195L256,424.55l60.522-29.796l47.436,18.19l83.199-31.905L447.146,273.504
	z M256,100.372l58.991,21.549L256,144.542l-58.992-22.622L256,100.372z M89.031,280.685l58.992-21.549l58.991,21.549l-58.992,22.622
	L89.031,280.685z M256,401.143L222.196,384.5l9.026-3.461l-0.004-107.784l-73.013-26.689v-63.917l14.597-5.749v45.375L256,254.18
	l83.199-31.905V176.9l14.597,5.749v63.911l-73.031,26.713L280.76,381.04l9.036,3.466L256,401.143z M304.968,280.685l58.992-21.549
	l58.991,21.549l-58.992,22.622L304.968,280.685z"/>
</svg>
