<?xml version="1.0" encoding="utf-8"?>
<!-- Generator: Adobe Illustrator 16.0.0, SVG Export Plug-In . SVG Version: 6.00 Build 0)  -->
<!DOCTYPE svg PUBLIC "-//W3C//DTD SVG 1.1//EN" "http://www.w3.org/Graphics/SVG/1.1/DTD/svg11.dtd">
<svg version="1.1" id="Layer_1" xmlns="http://www.w3.org/2000/svg" xmlns:xlink="http://www.w3.org/1999/xlink" x="0px" y="0px"
	 width="512px" height="512px" viewBox="0 0 512 512" enable-background="new 0 0 512 512" xml:space="preserve">
<path d="M456.408,278.731c0-15.438-10.726-28.361-25.129-31.75C412.336,171.95,340.941,116,256,116
	C119.55,116,82.216,232.865,79.044,247.424c-13.551,3.964-23.452,16.475-23.452,31.307c0,18.016,14.605,32.624,32.623,32.624
	c18.019,0,32.624-14.608,32.624-32.624c0-11.726-6.191-22.003-15.478-27.752c0,0,17.688-72.196,94.71-72.196
	c46.703,0,85.909,30.525,96.112,71.375c-10.063,5.555-16.878,16.265-16.878,28.573c0,18.016,14.605,32.624,32.623,32.624
	s32.623-14.608,32.623-32.624c0-14.832-9.9-27.343-23.451-31.307c-11.613-53.305-61.466-93.498-121.029-93.498
	c-3.042,0-6.06,0.109-9.049,0.315c19.78-8.585,41.791-13.385,64.978-13.385c72.544,0,133.627,46.918,150.638,110.122
	c-9.286,5.749-15.477,16.026-15.477,27.752c0,11.781,6.248,22.102,15.609,27.838c-12.647,37.393-50.063,64.574-94.139,64.574
	c-44.368,0-81.984-27.543-94.385-65.319c8.713-5.856,14.447-15.805,14.447-27.093c0-18.017-14.605-32.625-32.624-32.625
	c-18.018,0-32.623,14.607-32.623,32.625c0,15.847,11.302,29.048,26.28,32C208.44,359.891,256.177,396,312.632,396
	c56.584,0,104.404-36.274,118.999-85.602C445.858,306.884,456.408,294.041,456.408,278.731z"/>
</svg>
