<svg version="1.1" id="Layer_1" xmlns="http://www.w3.org/2000/svg" xmlns:xlink="http://www.w3.org/1999/xlink" x="0px" y="0px"
	 width="240px" height="240px" viewBox="0 0 512 512" enable-background="new 0 0 512 512" xml:space="preserve">
<g>
	<path fill="#4cc1f3" d="M399.708,106.263C360.184,66.737,307.633,44.97,251.737,44.97c-51.88,0-101.645,19.125-140.129,53.849
		C82.669,124.931,61.83,158.255,51,195.021l34.614,7.464c22.1-71.52,88.559-122.175,166.123-122.175
		c95.901,0,173.924,78.021,173.924,173.921c0,95.904-78.023,173.925-173.924,173.925v35.341c55.896,0,108.447-21.769,147.971-61.293
		C439.231,362.681,461,310.131,461,254.231C461,198.335,439.231,145.787,399.708,106.263z"/>
	<path fill="#4cc1f3" d="M251.737,147.456c58.876,0,106.777,47.899,106.777,106.775c0,58.878-47.9,106.779-106.777,106.779v35.342
		c78.364,0,142.118-63.757,142.118-142.121s-63.754-142.116-142.118-142.116c-33.75,0-66.463,12.04-92.12,33.897
		c-19.817,16.887-34.55,38.837-42.703,63.222l34.798,7.503C166.995,175.633,206.354,147.456,251.737,147.456z"/>
	<path fill="#4cc1f3" d="M251.737,209.878c24.457,0,44.356,19.898,44.356,44.354c0,24.46-19.899,44.358-44.356,44.358v35.342
		c43.944,0,79.695-35.754,79.695-79.7c0-43.942-35.751-79.695-79.695-79.695c-31.804,0-60.575,19.1-73.117,48.003l35.801,7.72
		C222.468,217.776,236.476,209.878,251.737,209.878z"/>
	<circle fill="#4cc1f3" cx="214.591" cy="316.261" r="21.203"/>
	<circle fill="#4cc1f3" cx="214.591" cy="379.266" r="21.206"/>
	<circle fill="#4cc1f3" cx="214.591" cy="445.827" r="21.204"/>
</g>
</svg>
