<?xml version="1.0" encoding="utf-8"?>
<!-- Generator: Adobe Illustrator 16.0.0, SVG Export Plug-In . SVG Version: 6.00 Build 0)  -->
<!DOCTYPE svg PUBLIC "-//W3C//DTD SVG 1.1//EN" "http://www.w3.org/Graphics/SVG/1.1/DTD/svg11.dtd">
<svg version="1.1" id="Layer_1" xmlns="http://www.w3.org/2000/svg" xmlns:xlink="http://www.w3.org/1999/xlink" x="0px" y="0px"
	 width="1200px" height="600px" viewBox="0 0 1200 600" enable-background="new 0 0 1200 600" xml:space="preserve">
<rect x="-53" y="-33" display="none" stroke="#000000" stroke-width="2" stroke-miterlimit="10" width="1289" height="668"/>
<line fill="none" stroke="white" stroke-miterlimit="10" x1="44" y1="-7.044" x2="50" y2="277"/>
<line fill="none" stroke="white" stroke-miterlimit="10" x1="50" y1="277" x2="256" y2="98"/>
<line fill="none" stroke="white" stroke-miterlimit="10" x1="256" y1="98" x2="44" y2="-7.044"/>
<line fill="none" stroke="white" stroke-miterlimit="10" x1="256" y1="98" x2="360" y2="-33"/>
<line fill="none" stroke="white" stroke-miterlimit="10" x1="256" y1="95.637" x2="249" y2="0"/>
<line fill="none" stroke="white" stroke-miterlimit="10" x1="256" y1="98" x2="407" y2="217"/>
<line fill="none" stroke="white" stroke-miterlimit="10" x1="256" y1="98" x2="86" y2="-57"/>
<line fill="none" stroke="white" stroke-miterlimit="10" x1="256" y1="98" x2="420" y2="98"/>
<line fill="none" stroke="white" stroke-miterlimit="10" x1="420" y1="98" x2="466" y2="-72"/>
<path fill="white" stroke="white" stroke-miterlimit="10" d="M481,254.61"/>
<path fill="white" stroke="white" stroke-miterlimit="10" d="M420,98"/>
<path fill="white" stroke="white" stroke-miterlimit="10" d="M160,439"/>
<path fill="white" stroke="white" stroke-miterlimit="10" d="M407,217"/>
<line fill="none" stroke="white" stroke-miterlimit="10" x1="160" y1="439" x2="50" y2="277"/>
<line fill="none" stroke="white" stroke-miterlimit="10" x1="50" y1="277" x2="401" y2="217"/>
<line fill="none" stroke="white" stroke-miterlimit="10" x1="420" y1="98" x2="407" y2="217"/>
<line fill="none" stroke="white" stroke-miterlimit="10" x1="407" y1="217" x2="710" y2="371"/>
<line fill="none" stroke="white" stroke-miterlimit="10" x1="710" y1="371" x2="802" y2="247"/>
<line fill="none" stroke="white" stroke-miterlimit="10" x1="802" y1="247" x2="1159" y2="504"/>
<line fill="none" stroke="white" stroke-miterlimit="10" x1="939.362" y1="345.886" x2="980.5" y2="224"/>
<line fill="none" stroke="white" stroke-miterlimit="10" x1="850" y1="0" x2="615" y2="267"/>
<line fill="none" stroke="white" stroke-miterlimit="10" x1="615" y1="267" x2="802" y2="247"/>
<line fill="none" stroke="white" stroke-miterlimit="10" x1="607.5" y1="106" x2="420" y2="98"/>
<line fill="none" stroke="white" stroke-miterlimit="10" x1="464.376" y1="-66" x2="607.5" y2="106"/>
<line fill="none" stroke="white" stroke-miterlimit="10" x1="607.5" y1="106" x2="719" y2="-14"/>
<line fill="none" stroke="white" stroke-miterlimit="10" x1="719" y1="-14" x2="751.734" y2="111.646"/>
<line fill="none" stroke="white" stroke-miterlimit="10" x1="802" y1="247" x2="880.877" y2="106"/>
<line fill="none" stroke="white" stroke-miterlimit="10" x1="880.877" y1="106" x2="883.951" y2="302"/>
<line fill="none" stroke="white" stroke-miterlimit="10" x1="880.877" y1="303.782" x2="980.5" y2="224"/>
<line fill="none" stroke="white" stroke-miterlimit="10" x1="929.116" y1="-24" x2="880.877" y2="106"/>
<line fill="none" stroke="white" stroke-miterlimit="10" x1="856" y1="0" x2="880.877" y2="106"/>
<line fill="none" stroke="white" stroke-miterlimit="10" x1="215" y1="248.795" x2="160" y2="439"/>
<line fill="none" stroke="white" stroke-miterlimit="10" x1="160" y1="439" x2="-14" y2="371"/>
<line fill="none" stroke="white" stroke-miterlimit="10" x1="50" y1="277" x2="-26" y2="384"/>
<line fill="none" stroke="white" stroke-miterlimit="10" x1="50" y1="277" x2="-34" y2="134.978"/>
<line fill="none" stroke="white" stroke-miterlimit="10" x1="44" y1="-7.044" x2="-34" y2="134.978"/>
<line fill="none" stroke="white" stroke-miterlimit="10" x1="401" y1="217" x2="407" y2="217"/>
<line fill="none" stroke="white" stroke-miterlimit="10" x1="215" y1="248.795" x2="256" y2="98"/>
<line fill="none" stroke="white" stroke-miterlimit="10" x1="160" y1="439" x2="316" y2="456"/>
<line fill="none" stroke="white" stroke-miterlimit="10" x1="316" y1="456" x2="407" y2="217"/>
<line fill="none" stroke="white" stroke-miterlimit="10" x1="316" y1="456" x2="271" y2="621"/>
<line fill="none" stroke="white" stroke-miterlimit="10" x1="607.5" y1="635" x2="481" y2="405"/>
<line fill="none" stroke="white" stroke-miterlimit="10" x1="955" y1="621" x2="899" y2="495"/>
<line fill="none" stroke="white" stroke-miterlimit="10" x1="1218" y1="330.5" x2="1092" y2="309"/>
<line fill="none" stroke="white" stroke-miterlimit="10" x1="1112" y1="613" x2="1050" y2="495"/>
<line fill="none" stroke="white" stroke-miterlimit="10" x1="1112" y1="-33" x2="1057" y2="224"/>
<line fill="none" stroke="white" stroke-miterlimit="10" x1="939.362" y1="-40" x2="995" y2="86"/>
<line fill="none" stroke="white" stroke-miterlimit="10" x1="1218" y1="161" x2="1066" y2="224"/>
<line fill="none" stroke="white" stroke-miterlimit="10" x1="719" y1="605" x2="802" y2="439"/>
<line fill="none" stroke="white" stroke-miterlimit="10" x1="371" y1="635" x2="374" y2="504"/>
<line fill="none" stroke="white" stroke-miterlimit="10" x1="-14" y1="595" x2="169" y2="554"/>
<line fill="none" stroke="white" stroke-miterlimit="10" x1="-53" y1="462" x2="139" y2="504"/>
<line fill="none" stroke="white" stroke-miterlimit="10" x1="160" y1="439" x2="139" y2="504"/>
<line fill="none" stroke="white" stroke-miterlimit="10" x1="139" y1="504" x2="-14" y2="371"/>
<line fill="none" stroke="white" stroke-miterlimit="10" x1="169" y1="554" x2="139" y2="504"/>
<line fill="none" stroke="white" stroke-miterlimit="10" x1="169" y1="554" x2="316" y2="456"/>
<line fill="none" stroke="white" stroke-miterlimit="10" x1="169" y1="554" x2="208" y2="605"/>
<line fill="none" stroke="white" stroke-miterlimit="10" x1="374" y1="504" x2="316" y2="456"/>
<line fill="none" stroke="white" stroke-miterlimit="10" x1="449.911" y1="621" x2="428" y2="480"/>
<line fill="none" stroke="white" stroke-miterlimit="10" x1="428" y1="480" x2="374" y2="504"/>
<line fill="none" stroke="white" stroke-miterlimit="10" x1="428" y1="480" x2="481" y2="405"/>
<line fill="none" stroke="white" stroke-miterlimit="10" x1="407" y1="217" x2="481" y2="405"/>
<line fill="none" stroke="white" stroke-miterlimit="10" x1="710" y1="371" x2="481" y2="405"/>
<line fill="none" stroke="white" stroke-miterlimit="10" x1="710" y1="371" x2="600" y2="635"/>
<line fill="none" stroke="white" stroke-miterlimit="10" x1="710" y1="371" x2="802" y2="439"/>
<line fill="none" stroke="white" stroke-miterlimit="10" x1="802" y1="247" x2="802" y2="439"/>
<line fill="none" stroke="white" stroke-miterlimit="10" x1="899" y1="495" x2="802" y2="439"/>
<line fill="none" stroke="white" stroke-miterlimit="10" x1="797" y1="435.305" x2="880.877" y2="643"/>
<line fill="none" stroke="white" stroke-miterlimit="10" x1="899" y1="495" x2="880.877" y2="643"/>
<line fill="none" stroke="white" stroke-miterlimit="10" x1="880.877" y1="303.782" x2="899" y2="495"/>
<line fill="none" stroke="white" stroke-miterlimit="10" x1="615" y1="267" x2="710" y2="371"/>
<line fill="none" stroke="white" stroke-miterlimit="10" x1="751.734" y1="111.646" x2="797" y2="-40"/>
<line fill="none" stroke="white" stroke-miterlimit="10" x1="995" y1="86" x2="980.5" y2="224"/>
<line fill="none" stroke="white" stroke-miterlimit="10" x1="995" y1="86" x2="1112" y2="-33"/>
<line fill="none" stroke="white" stroke-miterlimit="10" x1="1066" y1="224" x2="1057" y2="224"/>
<line fill="none" stroke="white" stroke-miterlimit="10" x1="1057" y1="224" x2="1092" y2="309"/>
<line fill="none" stroke="white" stroke-miterlimit="10" x1="1218" y1="161" x2="1092" y2="309"/>
<line fill="none" stroke="white" stroke-miterlimit="10" x1="1092" y1="309" x2="980.5" y2="224"/>
<line fill="none" stroke="white" stroke-miterlimit="10" x1="1057" y1="224" x2="980.5" y2="224"/>
<line fill="none" stroke="white" stroke-miterlimit="10" x1="980.5" y1="224" x2="1159" y2="504"/>
<line fill="none" stroke="white" stroke-miterlimit="10" x1="1218" y1="330.5" x2="1159" y2="504"/>
<line fill="none" stroke="white" stroke-miterlimit="10" x1="1050" y1="495" x2="880.877" y2="303.782"/>
<line fill="none" stroke="white" stroke-miterlimit="10" x1="899" y1="495" x2="1050" y2="495"/>
<line fill="none" stroke="white" stroke-miterlimit="10" x1="1050" y1="495" x2="1010" y2="643"/>
<line fill="none" stroke="white" stroke-miterlimit="10" x1="1050" y1="495" x2="1159" y2="504"/>
<line fill="none" stroke="white" stroke-miterlimit="10" x1="1159" y1="504" x2="1112" y2="621"/>
<line fill="none" stroke="white" stroke-miterlimit="10" x1="1092" y1="309" x2="1159" y2="504"/>
<line fill="none" stroke="white" stroke-miterlimit="10" x1="1218" y1="161" x2="1112" y2="-33"/>
<line fill="none" stroke="white" stroke-miterlimit="10" x1="751.734" y1="111.646" x2="802" y2="247"/>
<line fill="none" stroke="white" stroke-miterlimit="10" x1="428" y1="480" x2="316" y2="456"/>
<line fill="none" stroke="white" stroke-miterlimit="10" x1="481" y1="405" x2="316" y2="456"/>
<line fill="none" stroke="white" stroke-miterlimit="10" x1="607.5" y1="106" x2="615" y2="267"/>
<line fill="none" stroke="white" stroke-miterlimit="10" x1="256" y1="98" x2="446.518" y2="0"/>
<line fill="none" stroke="white" stroke-miterlimit="10" x1="139" y1="504" x2="-14" y2="595"/>
<line fill="none" stroke="white" stroke-miterlimit="10" x1="710" y1="371" x2="719" y2="600"/>
<line fill="none" stroke="white" stroke-miterlimit="10" x1="615" y1="267" x2="420" y2="98"/>
<line fill="none" stroke="white" stroke-miterlimit="10" x1="44" y1="-7.044" x2="110" y2="106"/>
<line fill="none" stroke="white" stroke-miterlimit="10" x1="110" y1="106" x2="50" y2="277"/>
<line fill="none" stroke="white" stroke-miterlimit="10" x1="110" y1="106" x2="256" y2="98"/>
<line fill="none" stroke="white" stroke-miterlimit="10" x1="751.734" y1="111.646" x2="692" y2="86"/>
<line fill="none" stroke="white" stroke-miterlimit="10" x1="692" y1="86" x2="607.5" y2="106"/>
<line fill="none" stroke="white" stroke-miterlimit="10" x1="692" y1="86" x2="615" y2="267"/>
<line fill="none" stroke="white" stroke-miterlimit="10" x1="481" y1="405" x2="530" y2="336.5"/>
<line fill="none" stroke="white" stroke-miterlimit="10" x1="530" y1="336.5" x2="407" y2="217"/>
<line fill="none" stroke="white" stroke-miterlimit="10" x1="530" y1="336.5" x2="710" y2="371"/>
<line fill="none" stroke="white" stroke-miterlimit="10" x1="215" y1="248.795" x2="256" y2="284.943"/>
<line fill="none" stroke="white" stroke-miterlimit="10" x1="256" y1="284.943" x2="160" y2="439"/>
<line fill="none" stroke="white" stroke-miterlimit="10" x1="256" y1="284.943" x2="407" y2="217"/>
<line fill="none" stroke="white" stroke-miterlimit="10" x1="407" y1="217" x2="293.5" y2="364"/>
<line fill="none" stroke="white" stroke-miterlimit="10" x1="293.5" y1="364" x2="316" y2="456"/>
<line fill="none" stroke="white" stroke-miterlimit="10" x1="293.5" y1="364" x2="160" y2="439"/>
<line fill="none" stroke="white" stroke-miterlimit="10" x1="420" y1="98" x2="505.5" y2="41"/>
<line fill="none" stroke="white" stroke-miterlimit="10" x1="505.5" y1="41" x2="449.911" y2="-72"/>
<line fill="none" stroke="white" stroke-miterlimit="10" x1="505.5" y1="41" x2="607.5" y2="106"/>
<line fill="none" stroke="white" stroke-miterlimit="10" x1="880.877" y1="106" x2="841.438" y2="53"/>
<line fill="none" stroke="white" stroke-miterlimit="10" x1="841.438" y1="53" x2="751.734" y2="111.646"/>
<line fill="none" stroke="white" stroke-miterlimit="10" x1="841.438" y1="53" x2="856" y2="-14"/>
<line fill="none" stroke="white" stroke-miterlimit="10" x1="880.877" y1="106" x2="947" y2="146"/>
<line fill="none" stroke="white" stroke-miterlimit="10" x1="947" y1="146" x2="939.362" y2="-15.5"/>
<line fill="none" stroke="white" stroke-miterlimit="10" x1="947" y1="146" x2="980.5" y2="224"/>
<line fill="none" stroke="white" stroke-miterlimit="10" x1="995" y1="86" x2="1057" y2="224"/>
<line fill="none" stroke="white" stroke-miterlimit="10" x1="899" y1="495" x2="861.158" y2="413"/>
<line fill="none" stroke="white" stroke-miterlimit="10" x1="861.158" y1="413" x2="880.877" y2="303.782"/>
<line fill="none" stroke="white" stroke-miterlimit="10" x1="861.158" y1="413" x2="802" y2="439"/>
<line fill="none" stroke="white" stroke-miterlimit="10" x1="710" y1="371" x2="607.5" y2="467"/>
<line fill="none" stroke="white" stroke-miterlimit="10" x1="607.5" y1="467" x2="603.232" y2="627.241"/>
<line fill="none" stroke="white" stroke-miterlimit="10" x1="607.5" y1="467" x2="481" y2="405"/>
<line fill="none" stroke="white" stroke-miterlimit="10" x1="1092.312" y1="399.391" x2="939.362" y2="345.886"/>
<line fill="none" stroke="white" stroke-miterlimit="10" x1="1092.312" y1="399.391" x2="1092" y2="309"/>
<line fill="none" stroke="white" stroke-miterlimit="10" x1="420" y1="98" x2="438.955" y2="146"/>
<line fill="none" stroke="white" stroke-miterlimit="10" x1="438.955" y1="146" x2="404" y2="224"/>
<line fill="none" stroke="white" stroke-miterlimit="10" x1="438.955" y1="146" x2="710" y2="371"/>
<line fill="none" stroke="white" stroke-miterlimit="10" x1="751.734" y1="111.646" x2="735.367" y2="204"/>
<line fill="none" stroke="white" stroke-miterlimit="10" x1="735.367" y1="204" x2="615" y2="267"/>
<line fill="none" stroke="white" stroke-miterlimit="10" x1="735.367" y1="204" x2="802" y2="247"/>
</svg>
