<?xml version="1.0" standalone="no"?>
<!DOCTYPE svg PUBLIC "-//W3C//DTD SVG 1.1//EN" "http://www.w3.org/Graphics/SVG/1.1/DTD/svg11.dtd">
<svg width="100%" height="100%" viewBox="0 0 282 52" version="1.1" xmlns="http://www.w3.org/2000/svg" xmlns:xlink="http://www.w3.org/1999/xlink" xml:space="preserve" style="fill-rule:evenodd;clip-rule:evenodd;stroke-linejoin:round;stroke-miterlimit:1.41421;">
    <g transform="matrix(1,0,0,1,-9.6016,-32.312)">
        <g id="Layer 1">
            <path d="M74.007,60.869L74.007,33.995L78.701,33.995L78.701,56.176L96.778,56.176L96.778,60.869L74.007,60.869Z" style="fill:rgb(52,152,102);fill-rule:nonzero;"/>
            <path d="M108.237,45.233L123.133,45.233L123.133,49.188L108.237,49.188L108.237,45.233ZM100.141,60.869L100.141,33.996L124.169,33.996L124.169,38.69L104.835,38.69L104.835,56.176L124.206,56.176L124.206,60.869L100.141,60.869Z" style="fill:rgb(52,152,102);fill-rule:nonzero;"/>
            <path d="M126.386,33.995L132.115,33.995L144.315,54.697L156.477,33.995L161.873,33.995L146.384,59.724C146.114,60.192 145.793,60.562 145.422,60.834C145.054,61.103 144.622,61.239 144.13,61.239C143.612,61.239 143.168,61.103 142.799,60.834C142.43,60.562 142.108,60.192 141.838,59.724L126.386,33.995Z" style="fill:rgb(52,152,102);fill-rule:nonzero;"/>
            <path d="M172.854,45.233L187.75,45.233L187.75,49.188L172.854,49.188L172.854,45.233ZM164.756,60.869L164.756,33.996L188.785,33.996L188.785,38.69L169.449,38.69L169.449,56.176L188.82,56.176L188.82,60.869L164.756,60.869Z" style="fill:rgb(52,152,102);fill-rule:nonzero;"/>
            <path d="M192.813,60.869L192.813,33.995L197.508,33.995L197.508,56.176L215.584,56.176L215.584,60.869L192.813,60.869Z" style="fill:rgb(52,152,102);fill-rule:nonzero;"/>
            <path d="M253.844,33.995L258.428,33.995L258.428,49.003C258.428,51.073 258.157,52.878 257.614,54.419C257.073,55.958 256.221,57.236 255.063,58.245C253.905,59.257 252.408,60.006 250.573,60.499C248.735,60.992 246.51,61.239 243.901,61.239C241.313,61.239 239.098,60.992 237.264,60.499C235.428,60.006 233.932,59.257 232.774,58.245C231.614,57.236 230.764,55.958 230.223,54.419C229.68,52.878 229.408,51.073 229.408,49.003L229.408,33.995L234.25,33.995L234.25,49.003C234.25,50.359 234.418,51.517 234.75,52.478C235.082,53.438 235.625,54.229 236.377,54.844C237.129,55.461 238.133,55.911 239.389,56.194C240.647,56.478 242.199,56.619 244.047,56.619C245.897,56.619 247.448,56.478 248.705,56.194C249.963,55.911 250.965,55.461 251.717,54.844C252.469,54.229 253.012,53.438 253.344,52.478C253.676,51.517 253.844,50.359 253.844,49.003L253.844,33.995Z" style="fill:rgb(52,152,102);fill-rule:nonzero;"/>
            <path d="M270.773,53.403L270.773,48.856L281.566,48.856C283.216,48.856 284.505,48.394 285.429,47.469C286.353,46.546 286.814,45.307 286.814,43.755C286.814,42.202 286.355,40.97 285.431,40.058C284.509,39.147 283.224,38.691 281.576,38.691L267.371,38.691L267.371,60.869L262.677,60.869L262.677,33.996L281.566,33.996C283.117,33.996 284.505,34.225 285.724,34.679C286.945,35.136 287.974,35.776 288.81,36.602C289.65,37.428 290.289,38.432 290.732,39.615C291.177,40.797 291.398,42.128 291.398,43.607C291.398,45.062 291.177,46.385 290.732,47.581C290.289,48.776 289.65,49.805 288.81,50.668C287.974,51.53 286.945,52.201 285.724,52.682C284.505,53.163 283.117,53.403 281.566,53.403L270.773,53.403Z" style="fill:rgb(52,152,102);fill-rule:nonzero;"/>
            <path d="M80.473,78.504C80.964,78.504 81.417,78.412 81.832,78.233C82.248,78.051 82.609,77.805 82.914,77.487C83.22,77.17 83.459,76.792 83.629,76.349C83.799,75.908 83.885,75.432 83.885,74.92C83.885,74.406 83.799,73.932 83.629,73.496C83.459,73.06 83.22,72.686 82.914,72.375C82.609,72.063 82.248,71.819 81.832,71.645C81.417,71.469 80.964,71.379 80.473,71.379L76.038,71.379L76.038,78.504L80.473,78.504ZM74.126,80.416L74.126,69.468L80.465,69.468C81.239,69.468 81.952,69.598 82.605,69.861C83.257,70.121 83.819,70.488 84.29,70.958C84.763,71.43 85.131,71.996 85.398,72.651C85.664,73.312 85.796,74.036 85.796,74.829C85.796,75.623 85.664,76.359 85.398,77.041C85.131,77.727 84.763,78.316 84.29,78.813C83.819,79.309 83.257,79.702 82.605,79.986C81.952,80.273 81.239,80.416 80.465,80.416L74.126,80.416Z" style="fill:rgb(66,65,67);fill-rule:nonzero;"/>
            <path d="M98.19,74.046L104.259,74.046L104.259,75.656L98.19,75.656L98.19,74.046ZM94.894,80.416L94.894,69.468L104.682,69.468L104.682,71.379L96.806,71.379L96.806,78.504L104.696,78.504L104.696,80.416L94.894,80.416Z" style="fill:rgb(66,65,67);fill-rule:nonzero;"/>
            <path d="M113.114,69.468L115.448,69.468L120.418,77.901L125.372,69.468L127.57,69.468L121.26,79.949C121.15,80.142 121.019,80.292 120.87,80.402C120.718,80.512 120.543,80.567 120.342,80.567C120.132,80.567 119.95,80.512 119.801,80.402C119.65,80.292 119.518,80.142 119.408,79.949L113.114,69.468Z" style="fill:rgb(66,65,67);fill-rule:nonzero;"/>
            <path d="M139.572,74.046L145.64,74.046L145.64,75.656L139.572,75.656L139.572,74.046ZM136.274,80.416L136.274,69.468L146.063,69.468L146.063,71.379L138.187,71.379L138.187,78.504L146.078,78.504L146.078,80.416L136.274,80.416Z" style="fill:rgb(66,65,67);fill-rule:nonzero;"/>
            <path d="M155.234,80.416L155.234,69.468L157.145,69.468L157.145,78.504L164.509,78.504L164.509,80.416L155.234,80.416Z" style="fill:rgb(66,65,67);fill-rule:nonzero;"/>
            <path d="M181.076,78.504C181.576,78.504 182.039,78.412 182.461,78.233C182.883,78.051 183.246,77.805 183.553,77.487C183.857,77.17 184.096,76.792 184.267,76.349C184.437,75.908 184.523,75.432 184.523,74.92C184.523,74.406 184.437,73.932 184.267,73.496C184.096,73.06 183.857,72.686 183.553,72.375C183.246,72.063 182.883,71.819 182.461,71.645C182.039,71.469 181.576,71.379 181.076,71.379L178.408,71.379C177.916,71.379 177.463,71.469 177.047,71.645C176.629,71.819 176.271,72.063 175.969,72.375C175.668,72.686 175.431,73.057 175.262,73.487C175.092,73.919 175.006,74.397 175.006,74.92C175.006,75.432 175.092,75.908 175.262,76.349C175.431,76.792 175.668,77.17 175.969,77.487C176.271,77.805 176.629,78.051 177.047,78.233C177.463,78.412 177.916,78.504 178.408,78.504L181.076,78.504ZM178.408,80.416C177.646,80.416 176.941,80.273 176.293,79.986C175.646,79.702 175.084,79.309 174.605,78.813C174.129,78.316 173.76,77.727 173.492,77.041C173.226,76.359 173.094,75.623 173.094,74.829C173.094,74.025 173.226,73.293 173.492,72.631C173.76,71.969 174.129,71.402 174.605,70.936C175.084,70.469 175.646,70.108 176.293,69.852C176.941,69.596 177.646,69.468 178.408,69.468L181.076,69.468C181.867,69.468 182.594,69.598 183.252,69.861C183.908,70.121 184.472,70.488 184.945,70.958C185.416,71.43 185.781,71.996 186.043,72.651C186.305,73.312 186.435,74.036 186.435,74.829C186.435,75.623 186.303,76.359 186.037,77.041C185.769,77.727 185.398,78.316 184.922,78.813C184.445,79.309 183.881,79.702 183.228,79.986C182.576,80.273 181.857,80.416 181.076,80.416L178.408,80.416Z" style="fill:rgb(66,65,67);fill-rule:nonzero;"/>
            <path d="M198.814,77.373L198.814,75.521L203.21,75.521C203.884,75.521 204.408,75.333 204.788,74.956C205.16,74.58 205.349,74.076 205.349,73.443C205.349,72.812 205.16,72.31 204.788,71.938C204.41,71.566 203.889,71.379 203.215,71.379L197.43,71.379L197.43,80.416L195.517,80.416L195.517,69.468L203.21,69.468C203.843,69.468 204.408,69.56 204.907,69.748C205.402,69.932 205.823,70.193 206.163,70.529C206.503,70.865 206.765,71.275 206.945,71.756C207.127,72.238 207.218,72.781 207.218,73.382C207.218,73.976 207.127,74.514 206.945,75C206.765,75.488 206.503,75.908 206.163,76.259C205.823,76.611 205.402,76.886 204.907,77.081C204.408,77.276 203.843,77.373 203.21,77.373L198.814,77.373Z" style="fill:rgb(66,65,67);fill-rule:nonzero;"/>
            <path d="M228.992,80.416L226.9,72.721L223.797,79.845C223.685,80.075 223.553,80.254 223.398,80.377C223.242,80.503 223.051,80.566 222.818,80.566C222.377,80.566 222.051,80.325 221.84,79.845L218.752,72.721L216.658,80.416L214.775,80.416L217.592,70.115C217.722,69.594 218.039,69.331 218.541,69.331C218.742,69.331 218.931,69.388 219.105,69.496C219.281,69.607 219.414,69.77 219.504,69.98L222.879,77.719L226.252,69.98C226.433,69.547 226.738,69.331 227.168,69.331C227.633,69.331 227.939,69.594 228.088,70.115L230.888,80.416L228.992,80.416Z" style="fill:rgb(66,65,67);fill-rule:nonzero;"/>
            <path d="M242.982,74.046L249.05,74.046L249.05,75.656L242.982,75.656L242.982,74.046ZM239.686,80.416L239.686,69.468L249.475,69.468L249.475,71.379L241.598,71.379L241.598,78.504L249.488,78.504L249.488,80.416L239.686,80.416Z" style="fill:rgb(66,65,67);fill-rule:nonzero;"/>
            <path d="M260.42,72.405L260.42,80.416L258.6,80.416L258.6,70.476C258.6,70.124 258.686,69.847 258.861,69.64C259.037,69.435 259.275,69.331 259.576,69.331C259.717,69.331 259.852,69.362 259.984,69.424C260.115,69.482 260.25,69.584 260.391,69.723L268.113,77.388L268.113,69.377L269.938,69.377L269.938,79.407C269.938,79.768 269.85,80.05 269.674,80.249C269.498,80.45 269.27,80.551 268.988,80.551C268.678,80.551 268.387,80.416 268.113,80.144L260.42,72.405Z" style="fill:rgb(66,65,67);fill-rule:nonzero;"/>
            <path d="M282.83,80.416L282.83,71.379L278.672,71.379L278.672,69.468L288.898,69.468L288.898,71.379L284.74,71.379L284.74,80.416L282.83,80.416Z" style="fill:rgb(66,65,67);fill-rule:nonzero;"/>
            <path d="M21.057,72.535L21.057,43.508L9.602,43.508L9.602,83.987L30.02,83.987L30.02,72.535L21.057,72.535Z" style="fill:rgb(66,65,67);fill-rule:nonzero;"/>
            <rect x="32.896" y="63.748" width="11.454" height="20.239" style="fill:rgb(52,152,102);fill-rule:nonzero;"/>
            <rect x="47.226" y="32.312" width="11.455" height="51.675" style="fill:rgb(52,152,102);fill-rule:nonzero;"/>
        </g>
    </g>
</svg>
