<svg version="1.1" id="reapp" xmlns="http://www.w3.org/2000/svg" xmlns:xlink="http://www.w3.org/1999/xlink" x="0px" y="0px"
	 width="63.72px" height="84.06px" viewBox="0 0 63.72 84.06" enable-background="new 0 0 63.72 84.06" xml:space="preserve">
	<g id="r">
		<g>
			<path fill="#27CCF5" d="M15.816,0.141c0,0-15.759,0-15.759,15.759c0,15.758,0,55.155,0,55.155s15.759,0.315,15.759-15.522V27.719
				c0-1.998,0-3.152,0-3.152v-4.728c0-2.176,1.764-3.939,3.939-3.939c0,0,2.285,0,4.255,0h7.407
				c15.286,0,15.601-15.759,15.601-15.759H15.816z"/>
		</g>
	</g>
	<g id="r2">
		<g>
			<path fill="#22E071" d="M47.819,28.623v27.813c0,1.998,0,3.152,0,3.152v4.728c0,2.176-1.764,3.939-3.939,3.939
				c0,0-2.285,0-4.255,0h-7.406c-15.286,0-15.602,15.759-15.602,15.759h31.202c0,0,15.759,0,15.759-15.759s0-55.155,0-55.155
				S47.819,12.785,47.819,28.623z"/>
		</g>
	</g>
</svg>
